<svg width="29" height="29" viewBox="0 0 29 29" xmlns="http://www.w3.org/2000/svg"><g fill="none" fill-rule="evenodd"><rect fill="#8E8E93" width="29" height="29" rx="6"/><g fill="#FFF"><path d="M14.5 4h-.01-.015C8.685 4.015 4 8.71 4 14.5S8.685 24.985 14.475 25h.025C20.3 25 25 20.3 25 14.5S20.3 4 14.5 4zm0 20.162h-.01-.015c-5.32-.015-9.637-4.336-9.637-9.662 0-5.326 4.31-9.647 9.637-9.657h.025c5.336 0 9.662 4.326 9.662 9.662 0 5.33-4.326 9.657-9.662 9.657z"/><path d="M17.847 10.25c-.944.227-1.918.363-2.923.393v3.438h3.413c-.03-1.417-.207-2.705-.49-3.83zM14.92 5.742v4.134c.933-.03 1.842-.15 2.715-.364-.66-2.09-1.69-3.462-2.716-3.77zM11.34 9.507c.883.212 1.797.34 2.736.37V5.73c-1.025.3-2.07 1.672-2.736 3.777zM20.79 8.31c-1.14-1.16-2.6-2.008-4.235-2.397.747.773 1.373 1.954 1.822 3.398.843-.257 1.65-.59 2.413-1zM19.11 14.08h4.204c-.09-1.958-.823-3.755-1.994-5.178-.863.474-1.777.863-2.73 1.15.307 1.212.49 2.58.52 4.03zM10.638 14.08h3.443v-3.437c-1.014-.03-1.998-.166-2.947-.4-.288 1.127-.464 2.42-.495 3.838zM18.337 14.92H14.92v3.432c1.004.03 1.983.16 2.927.393.283-1.12.46-2.413.49-3.826zM11.133 18.75c.95-.232 1.933-.368 2.948-.398V14.92H10.64c.03 1.417.207 2.71.495 3.83zM14.08 23.263V19.12c-.938.03-1.857.155-2.74.368.666 2.105 1.71 3.483 2.74 3.775zM16.555 23.087c1.635-.394 3.094-1.237 4.24-2.403-.762-.41-1.57-.742-2.413-1-.45 1.45-1.08 2.625-1.827 3.403zM12.415 5.923c-1.62.394-3.07 1.237-4.205 2.393.757.404 1.555.737 2.388.99.45-1.44 1.075-2.61 1.817-3.383zM18.59 18.947c.958.288 1.872.677 2.735 1.15 1.17-1.422 1.903-3.22 1.994-5.178h-4.206c-.035 1.448-.217 2.81-.525 4.027zM14.92 19.12v4.138c1.024-.308 2.054-1.68 2.715-3.776-.873-.212-1.782-.333-2.716-.363zM10.39 10.048c-.948-.288-1.857-.672-2.71-1.146-1.17 1.423-1.903 3.22-1.994 5.18H9.87c.026-1.455.213-2.823.52-4.034zM9.866 14.92H5.68c.092 1.958.824 3.755 1.995 5.178.853-.47 1.762-.858 2.71-1.146-.302-1.21-.49-2.58-.52-4.033zM8.205 20.684c1.136 1.156 2.585 2 4.21 2.393-.742-.773-1.368-1.95-1.817-3.388-.833.257-1.636.59-2.393.994z"/></g></g></svg>