<svg width="29" height="29" viewBox="0 0 29 29" xmlns="http://www.w3.org/2000/svg"><g fill="none" fill-rule="evenodd"><rect fill="#8E8E93" width="29" height="29" rx="6"/><path d="M14.505 7C9.252 7 5 10.455 5 14.715c0 1.535.554 2.965 1.505 4.165.045.045.144.19.178.245 0 0-.05-.08-.054-.095.113.165.177.355.177.56 0 .07-.886 2.9-.886 2.9-.064.22.105.445.377.5.04.01.08.01.12.01.063 0 .123-.01.182-.025l.078-.03 2.505-1.1c.045-.02.446-.175.495-.195l.03-.01s-.005 0-.03.01c.17-.06.357-.09.555-.09.178 0 .35.025.51.075.005 0 .01 0 .01.005.024.01.05.015.074.025 1.143.395 2.396.515 3.718.515 5.247 0 9.455-3.205 9.455-7.465C24.01 10.455 19.752 7 14.505 7z" fill="#FFF"/></g></svg>